<?xml version="1.0" encoding="iso-8859-1"?>
<!-- Generator: Adobe Illustrator 23.0.3, SVG Export Plug-In . SVG Version: 6.00 Build 0)  -->
<svg version="1.1" id="Capa_1" xmlns="http://www.w3.org/2000/svg" xmlns:xlink="http://www.w3.org/1999/xlink" x="0px" y="0px"
	 viewBox="0 0 22.2 22.952" style="enable-background:new 0 0 22.2 22.952;" xml:space="preserve">
<path style="fill:#313A38;" d="M19.3,2.652c-0.7-0.8-1.9-0.8-2.7-1.9c-0.263,0.527-0.65,0.816-1.073,1.027
	c0.054,0.036,0.255,0.182,0.326,0.468c0.062,0.25,0.001,0.529-0.183,0.829c-0.22,0.357-0.298,0.662-0.232,0.905
	c0.059,0.216,0.212,0.301,0.213,0.302c0.024,0.013,0.033,0.043,0.021,0.068c-0.009,0.017-0.026,0.026-0.044,0.026
	c-0.008,0-0.017-0.002-0.023-0.006c-0.008-0.004-0.193-0.107-0.263-0.364c-0.072-0.271,0.01-0.602,0.243-0.984
	c0.17-0.275,0.228-0.528,0.171-0.752c-0.069-0.282-0.299-0.419-0.301-0.421c-0.01-0.006-0.003-0.019-0.007-0.029
	C14.602,2.216,13.62,2.307,13.1,3.152c-0.662,1.075-1.52,2.016-2.253,2.988c0.105,0.181,0.524,0.86,0.945,0.86
	c0.026,0,0.053-0.003,0.079-0.008c0.026-0.007,0.053,0.012,0.059,0.039s-0.011,0.053-0.039,0.059
	c-0.033,0.007-0.066,0.01-0.099,0.01c-0.457,0-0.874-0.64-1.011-0.872c-0.13,0.174-0.264,0.347-0.383,0.524
	C9.468,8.15,8.369,9.465,7.818,11.014c0,0,0,0,0.001,0c0.013,0.007,1.34,0.68,2.875,0.375c1.536-0.309,1.828,0.242,1.841,0.266
	c0.012,0.025,0.002,0.055-0.022,0.067c-0.008,0.003-0.015,0.005-0.022,0.005c-0.019,0-0.036-0.01-0.045-0.027
	c-0.003-0.005-0.28-0.504-1.731-0.213c-0.256,0.051-0.502,0.069-0.741,0.074c0.076,0.126,0.219,0.213,0.345,0.259
	c0.448,0.162,1.093,0.13,1.328-0.007c0.022-0.014,0.054-0.006,0.068,0.019c0.014,0.024,0.005,0.054-0.019,0.068
	c-0.148,0.085-0.402,0.129-0.674,0.129c-0.255,0-0.525-0.038-0.738-0.115c-0.227-0.083-0.373-0.205-0.434-0.353
	c-1.137-0.007-2.005-0.422-2.064-0.452c-0.028,0.081-0.061,0.16-0.085,0.243c-0.6,1.9-1.1,4,0.2,6.1
	c0.16,0.239,0.298,0.486,0.436,0.728c0.027,0.047,0.056,0.093,0.083,0.14c0.07-0.419,0.338-1.473,1.297-1.473
	c0.026,0,0.053,0.001,0.08,0.003c0.023,0.001,0.046,0.002,0.068,0.002c0.977,0,1.349-1.261,1.353-1.273
	c0.007-0.027,0.036-0.046,0.062-0.034c0.027,0.008,0.042,0.035,0.034,0.062c-0.004,0.014-0.397,1.346-1.448,1.346
	c-0.024,0-0.049,0-0.075-0.002c-0.024-0.001-0.049-0.002-0.072-0.002c-1,0-1.192,1.269-1.219,1.507
	c0.334,0.564,0.707,1.082,1.402,1.398c0.8,0.3,1.1,1.1,1.2,1.8c0.1,0.6-0.2,1.4,0.8,1.3c0.7-0.1,0.7-0.8,0.6-1.4
	c-0.1-1.2,0.2-2.5,1-3.3c0.461-0.461,0.854-0.941,1.197-1.441c-1.912-0.658-1.765-1.874-1.763-1.886
	c0.005-0.027,0.032-0.04,0.057-0.043c0.027,0.004,0.047,0.029,0.043,0.057c-0.002,0.012-0.136,1.159,1.718,1.786
	c0.962-1.432,1.511-3.021,1.949-4.773c0.065-0.261,0.11-0.549,0.15-0.842c-1.014,0.017-2.38,0.462-2.394,0.467
	c-0.005,0.002-0.011,0.002-0.016,0.002c-0.021,0-0.041-0.013-0.048-0.034c-0.008-0.026,0.006-0.054,0.032-0.063
	c0.014-0.005,1.409-0.46,2.44-0.473c0.069-0.527,0.122-1.074,0.229-1.554c-0.07-0.049-0.173-0.102-0.301-0.102
	c-0.015,0-0.029,0.001-0.045,0.002c-0.221,0.022-0.434,0.203-0.631,0.537c-0.001,0.002-0.002,0.002-0.003,0.004c0,0,0,0.001,0,0.001
	c0,0.001-0.001,0-0.002,0.001c-0.196,0.33-0.431,0.518-0.696,0.557c-0.035,0.005-0.07,0.008-0.104,0.008
	c-0.332,0-0.58-0.226-0.592-0.236c-0.02-0.019-0.021-0.05-0.003-0.07c0.019-0.021,0.049-0.022,0.071-0.003
	c0.002,0.002,0.285,0.256,0.614,0.203c0.225-0.033,0.425-0.2,0.601-0.48l-0.495-0.372c-0.021-0.017-0.026-0.048-0.01-0.07
	c0.017-0.022,0.05-0.025,0.07-0.01l0.494,0.372c0.128-0.206,0.265-0.35,0.408-0.438l-0.349-0.577
	c-0.014-0.023-0.007-0.054,0.018-0.069c0.023-0.014,0.054-0.007,0.068,0.017l0.349,0.576c0.06-0.026,0.121-0.043,0.183-0.049
	c0.16-0.015,0.291,0.039,0.383,0.096c0.1-0.408,0.241-0.764,0.478-1.001c1.125-0.992,0.808-2.421,0.984-3.652
	c-0.265-0.018-1.283-0.05-2.019,0.433c-0.009,0.005-0.018,0.008-0.027,0.008c-0.017,0-0.032-0.008-0.042-0.022
	c-0.015-0.023-0.009-0.054,0.015-0.069c0.778-0.511,1.822-0.468,2.087-0.448c0.099-0.591,0.325-1.132,0.902-1.549
	C19.5,3.052,19.4,2.752,19.3,2.652z"/>
<g>
	<path style="fill:#313A38;" d="M2.467,4.718c0.1-0.3,0.4-0.3,0.5-0.2c0.3,0.4,0.4,1.1,0.1,1.2c-0.4,0.1-0.4-0.3-0.8-0.3
		c-0.5,0-0.5,0.6-0.6,0.7s-0.3,0.1-0.4,0s0.2-0.5,0.1-0.7s-0.4-0.4-0.2-0.6C1.367,4.618,2.067,5.418,2.467,4.718z"/>
	<path style="fill:#313A38;" d="M1.067,5.618c-0.1,0.2-0.4,0.2-0.6,0.1c-0.1,0,0-0.1,0-0.2c0.1-0.1,0.2-0.3,0.4-0.3
		C0.967,5.218,1.167,5.518,1.067,5.618z"/>
</g>
<polygon style="fill:#196635;stroke:#196635;stroke-width:0.25;stroke-linecap:round;stroke-linejoin:round;stroke-miterlimit:10;" points="
	10.309,14.512 9.913,15.198 10.704,15.198 "/>
<polygon style="fill:#E06910;stroke:#E06910;stroke-width:0.25;stroke-linecap:round;stroke-linejoin:round;stroke-miterlimit:10;" points="
	14.16,5.776 13.764,6.461 14.555,6.461 "/>
<polygon style="fill:#7E5A25;stroke:#7E5A25;stroke-width:0.25;stroke-linecap:round;stroke-linejoin:round;stroke-miterlimit:10;" points="
	14.688,7.157 14.292,7.842 15.083,7.842 "/>
<polygon style="fill:#7E5A25;stroke:#7E5A25;stroke-width:0.25;stroke-linecap:round;stroke-linejoin:round;stroke-miterlimit:10;" points="
	12.886,8.011 12.49,8.696 13.282,8.696 "/>
<polygon style="fill:#196635;stroke:#196635;stroke-width:0.25;stroke-linecap:round;stroke-linejoin:round;stroke-miterlimit:10;" points="
	14.605,6.118 14.209,6.804 15,6.804 "/>
<polygon style="fill:#E06910;stroke:#E06910;stroke-width:0.25;stroke-linecap:round;stroke-linejoin:round;stroke-miterlimit:10;" points="
	13.649,7.157 13.253,7.842 14.044,7.842 "/>
<polygon style="fill:#E06910;stroke:#E06910;stroke-width:0.25;stroke-linecap:round;stroke-linejoin:round;stroke-miterlimit:10;" points="
	16.539,7.842 16.144,8.528 16.935,8.528 "/>
<polygon style="fill:#E06910;stroke:#E06910;stroke-width:0.25;stroke-linecap:round;stroke-linejoin:round;stroke-miterlimit:10;" points="
	16.737,6.461 16.341,7.147 17.133,7.147 "/>
<polygon style="fill:#E06910;stroke:#E06910;stroke-width:0.25;stroke-linecap:round;stroke-linejoin:round;stroke-miterlimit:10;" points="
	14.16,10.534 13.764,11.219 14.555,11.219 "/>
<polygon style="fill:#E06910;stroke:#E06910;stroke-width:0.25;stroke-linecap:round;stroke-linejoin:round;stroke-miterlimit:10;" points="
	16.29,9.573 15.869,10.243 16.66,10.272 "/>
<polygon style="fill:#196635;stroke:#196635;stroke-width:0.25;stroke-linecap:round;stroke-linejoin:round;stroke-miterlimit:10;" points="
	13.292,8.398 12.896,9.084 13.687,9.084 "/>
<polygon style="fill:#196635;stroke:#196635;stroke-width:0.25;stroke-linecap:round;stroke-linejoin:round;stroke-miterlimit:10;" points="
	14.073,7.984 13.677,8.669 14.469,8.669 "/>
<polygon style="fill:#196635;stroke:#196635;stroke-width:0.25;stroke-linecap:round;stroke-linejoin:round;stroke-miterlimit:10;" points="
	15.748,6.674 15.352,7.36 16.144,7.36 "/>
<polygon style="fill:#196635;stroke:#196635;stroke-width:0.25;stroke-linecap:round;stroke-linejoin:round;stroke-miterlimit:10;" points="
	12.261,8.864 11.865,9.55 12.656,9.55 "/>
<polygon style="fill:#7E5A25;stroke:#7E5A25;stroke-width:0.25;stroke-linecap:round;stroke-linejoin:round;stroke-miterlimit:10;" points="
	14.292,8.647 13.896,9.332 14.688,9.332 "/>
<polygon style="fill:#E06910;stroke:#E06910;stroke-width:0.25;stroke-linecap:round;stroke-linejoin:round;stroke-miterlimit:10;" points="
	13.896,9.58 13.501,10.265 14.292,10.265 "/>
<polygon style="fill:#196635;stroke:#196635;stroke-width:0.25;stroke-linecap:round;stroke-linejoin:round;stroke-miterlimit:10;" points="
	13.282,9.728 12.886,10.413 13.677,10.413 "/>
<polygon style="fill:#196635;stroke:#196635;stroke-width:0.25;stroke-linecap:round;stroke-linejoin:round;stroke-miterlimit:10;" points="
	13.677,11.953 13.282,12.639 14.073,12.639 "/>
<polygon style="fill:#7E5A25;stroke:#7E5A25;stroke-width:0.25;stroke-linecap:round;stroke-linejoin:round;stroke-miterlimit:10;" points="
	11.771,16.83 11.375,17.515 12.166,17.515 "/>
<polygon style="fill:#7E5A25;stroke:#7E5A25;stroke-width:0.25;stroke-linecap:round;stroke-linejoin:round;stroke-miterlimit:10;" points="
	13.052,12.639 12.656,13.324 13.448,13.324 "/>
<polygon style="fill:#7E5A25;stroke:#7E5A25;stroke-width:0.25;stroke-linecap:round;stroke-linejoin:round;stroke-miterlimit:10;" points="
	13.253,10.877 12.857,11.562 13.649,11.562 "/>
<polygon style="fill:#196635;stroke:#196635;stroke-width:0.25;stroke-linecap:round;stroke-linejoin:round;stroke-miterlimit:10;" points="
	12.261,13.41 11.865,14.095 12.656,14.095 "/>
<polygon style="fill:#196635;stroke:#196635;stroke-width:0.25;stroke-linecap:round;stroke-linejoin:round;stroke-miterlimit:10;" points="
	11.67,15.693 11.274,16.378 12.066,16.378 "/>
<polygon style="fill:#196635;stroke:#196635;stroke-width:0.25;stroke-linecap:round;stroke-linejoin:round;stroke-miterlimit:10;" points="
	11.265,17.172 10.869,17.858 11.661,17.858 "/>
<polygon style="fill:#196635;stroke:#196635;stroke-width:0.25;stroke-linecap:round;stroke-linejoin:round;stroke-miterlimit:10;" points="
	11.486,18.31 11.09,18.995 11.882,18.995 "/>
<polygon style="fill:#E06910;stroke:#E06910;stroke-width:0.25;stroke-linecap:round;stroke-linejoin:round;stroke-miterlimit:10;" points="
	10.704,16.035 10.309,16.721 11.1,16.721 "/>
<polygon style="fill:#196635;stroke:#196635;stroke-width:0.25;stroke-linecap:round;stroke-linejoin:round;stroke-miterlimit:10;" points="
	16.341,4.049 15.946,4.735 16.737,4.735 "/>
<polygon style="fill:#196635;stroke:#196635;stroke-width:0.25;stroke-linecap:round;stroke-linejoin:round;stroke-miterlimit:10;" points="
	17.87,3.441 17.475,4.126 18.266,4.126 "/>
<polygon style="fill:#196635;stroke:#196635;stroke-width:0.25;stroke-linecap:round;stroke-linejoin:round;stroke-miterlimit:10;" points="
	12.656,10.071 12.261,10.756 13.052,10.756 "/>
<polygon style="fill:#E06910;stroke:#E06910;stroke-width:0.25;stroke-linecap:round;stroke-linejoin:round;stroke-miterlimit:10;" points="
	11.265,10.413 10.869,11.099 11.661,11.099 "/>
<polygon style="fill:#196635;stroke:#196635;stroke-width:0.25;stroke-linecap:round;stroke-linejoin:round;stroke-miterlimit:10;" points="
	11.885,11.74 11.489,12.426 12.281,12.426 "/>
<polygon style="fill:#E06910;stroke:#E06910;stroke-width:0.25;stroke-linecap:round;stroke-linejoin:round;stroke-miterlimit:10;" points="
	10.869,12.218 10.474,12.903 11.265,12.903 "/>
<polygon style="fill:#196635;stroke:#196635;stroke-width:0.25;stroke-linecap:round;stroke-linejoin:round;stroke-miterlimit:10;" points="
	10.704,13.067 10.309,13.752 11.1,13.752 "/>
<polygon style="fill:#7E5A25;stroke:#7E5A25;stroke-width:0.25;stroke-linecap:round;stroke-linejoin:round;stroke-miterlimit:10;" points="
	12.066,12.296 11.67,12.981 12.462,12.981 "/>
<polygon style="fill:#E06910;stroke:#E06910;stroke-width:0.25;stroke-linecap:round;stroke-linejoin:round;stroke-miterlimit:10;" points="
	11.661,13.067 11.265,13.752 12.057,13.752 "/>
<polygon style="fill:#E06910;stroke:#E06910;stroke-width:0.25;stroke-linecap:round;stroke-linejoin:round;stroke-miterlimit:10;" points="
	12.656,16.065 12.261,16.751 13.052,16.751 "/>
<polygon style="fill:#7E5A25;stroke:#7E5A25;stroke-width:0.25;stroke-linecap:round;stroke-linejoin:round;stroke-miterlimit:10;" points="
	11.265,13.979 10.869,14.664 11.661,14.664 "/>
<polygon style="fill:#196635;stroke:#196635;stroke-width:0.25;stroke-linecap:round;stroke-linejoin:round;stroke-miterlimit:10;" points="
	11.67,14.664 11.274,15.35 12.066,15.35 "/>
<polygon style="fill:#E06910;stroke:#E06910;stroke-width:0.25;stroke-linecap:round;stroke-linejoin:round;stroke-miterlimit:10;" points="
	12.857,11.334 12.462,12.02 13.253,12.02 "/>
<polygon style="fill:#E06910;stroke:#E06910;stroke-width:0.25;stroke-linecap:round;stroke-linejoin:round;stroke-miterlimit:10;" points="
	17.133,3.707 16.737,4.392 17.528,4.392 "/>
<polygon style="fill:#7E5A25;stroke:#7E5A25;stroke-width:0.25;stroke-linecap:round;stroke-linejoin:round;stroke-miterlimit:10;" points="
	15.479,8.398 15.083,9.084 15.875,9.084 "/>
<polygon style="fill:#7E5A25;stroke:#7E5A25;stroke-width:0.25;stroke-linecap:round;stroke-linejoin:round;stroke-miterlimit:10;" points="
	14.073,12.382 13.677,13.067 14.469,13.067 "/>
<polygon style="fill:#E06910;stroke:#E06910;stroke-width:0.25;stroke-linecap:round;stroke-linejoin:round;stroke-miterlimit:10;" points="
	15,9.237 14.605,9.922 15.396,9.922 "/>
<polygon style="fill:#7E5A25;stroke:#7E5A25;stroke-width:0.25;stroke-linecap:round;stroke-linejoin:round;stroke-miterlimit:10;" points="
	15.946,4.608 15.55,5.293 16.341,5.293 "/>
<polygon style="fill:#E06910;stroke:#E06910;stroke-width:0.25;stroke-linecap:round;stroke-linejoin:round;stroke-miterlimit:10;" points="
	12.387,14.855 11.991,15.54 12.782,15.54 "/>
<polygon style="fill:#196635;stroke:#196635;stroke-width:0.25;stroke-linecap:round;stroke-linejoin:round;stroke-miterlimit:10;" points="
	13.448,13.067 13.052,13.752 13.843,13.752 "/>
<polygon style="fill:#7E5A25;stroke:#7E5A25;stroke-width:0.25;stroke-linecap:round;stroke-linejoin:round;stroke-miterlimit:10;" points="
	12.896,13.979 12.5,14.664 13.292,14.664 "/>
<polygon style="fill:#7E5A25;stroke:#7E5A25;stroke-width:0.25;stroke-linecap:round;stroke-linejoin:round;stroke-miterlimit:10;" points="
	11.865,18.995 11.469,19.68 12.261,19.68 "/>
<g>
	<path style="fill:#D3D1CD;" d="M16.314,2.202c0.01-0.104-0.097-0.128-0.107-0.137c-0.01-0.01-0.035-0.156-0.014-0.237
		c0.055-0.209,0.276-0.332,0.492-0.275c0.216,0.057,0.347,0.273,0.291,0.482c-0.019,0.073-0.098,0.182-0.111,0.183
		c-0.013,0.001-0.13,0.006-0.148,0.071c-0.009,0.033,0.01,0.065,0.014,0.093c0.004,0.029-0.012,0.074-0.021,0.081
		c-0.009,0.007-0.075-0.012-0.082-0.022c-0.007-0.01,0.023-0.049,0.016-0.06c-0.007-0.011-0.047-0.019-0.057-0.015
		c-0.01,0.004-0.006,0.051-0.016,0.06c-0.01,0.009-0.055-0.008-0.062-0.016c-0.007-0.009,0.025-0.05,0.016-0.06
		c-0.009-0.01-0.055-0.021-0.064-0.017c-0.008,0.004-0.007,0.052-0.016,0.06c-0.009,0.008-0.055-0.005-0.062-0.016
		c-0.006-0.012,0.019-0.049,0.016-0.06c-0.004-0.011-0.047-0.018-0.058-0.015c-0.011,0.003-0.006,0.053-0.016,0.06
		c-0.01,0.007-0.075-0.011-0.082-0.022c-0.007-0.011,0.004-0.045,0.018-0.067C16.276,2.251,16.306,2.232,16.314,2.202z"/>
	<g style="opacity:0.4;">
		<path style="fill:#A7A9AC;" d="M16.657,1.547c0.009,0.002,0.019,0.004,0.028,0.006c0.216,0.057,0.347,0.273,0.291,0.482
			c-0.019,0.073-0.096,0.181-0.111,0.183c-0.02,0.003-0.039,0-0.058,0.008c0.048-0.048,0.103-0.121,0.121-0.19
			C16.985,1.83,16.864,1.617,16.657,1.547z"/>
	</g>
	<path style="fill:#414042;" d="M16.615,2.054c-0.014,0.052,0.019,0.106,0.073,0.12c0.054,0.014,0.109-0.016,0.123-0.069
		c0.014-0.052-0.019-0.106-0.073-0.12C16.684,1.971,16.629,2.002,16.615,2.054z"/>
	<path style="fill:#414042;" d="M16.332,1.979c-0.014,0.052,0.019,0.106,0.073,0.12c0.054,0.014,0.109-0.016,0.123-0.069
		c0.014-0.052-0.019-0.106-0.073-0.12C16.401,1.896,16.346,1.927,16.332,1.979z"/>
	<path style="opacity:0.3;fill:#414042;" d="M16.783,2.121c0.014-0.052-0.019-0.106-0.073-0.12
		c-0.021-0.006-0.043-0.004-0.062,0.003c0.024-0.019,0.057-0.027,0.089-0.018c0.054,0.014,0.086,0.068,0.073,0.12
		c-0.008,0.031-0.032,0.055-0.061,0.066C16.766,2.159,16.778,2.142,16.783,2.121z"/>
	<path style="opacity:0.3;fill:#414042;" d="M16.455,1.911c0.035,0.009,0.061,0.036,0.071,0.067c-0.013-0.02-0.034-0.036-0.06-0.043
		c-0.054-0.014-0.109,0.016-0.123,0.069c-0.005,0.018-0.004,0.036,0.001,0.053c-0.014-0.022-0.02-0.05-0.013-0.077
		C16.346,1.927,16.401,1.896,16.455,1.911z"/>
	<path style="fill:#414042;" d="M16.539,2.173c0.035,0.009,0.052,0.106,0.03,0.11c-0.022,0.004-0.038-0.028-0.052-0.03
		c-0.015-0.003-0.026,0.012-0.049,0.005C16.433,2.248,16.498,2.162,16.539,2.173z"/>
</g>
<g>
	<g>
		<g>
			<path style="fill:#58595B;" d="M2.256,3.708c-0.288,0-0.522,0.234-0.522,0.522v0.862h1.043V4.831V4.23
				C2.777,3.942,2.544,3.708,2.256,3.708z"/>
			<path style="fill:#939598;" d="M2.149,3.708c-0.288,0-0.522,0.234-0.522,0.522v0.862h1.043V4.831V4.23
				C2.671,3.942,2.437,3.708,2.149,3.708z"/>
			<path style="opacity:0.22;fill:#6D6E71;" d="M2.217,3.713C2.194,3.71,2.172,3.708,2.149,3.708c-0.288,0-0.522,0.234-0.522,0.522
				v0.862h0.136V4.23C1.763,3.965,1.961,3.746,2.217,3.713z"/>
		</g>
		<rect x="1.468" y="5.046" style="fill:#6D6E71;" width="1.411" height="0.175"/>
	</g>
	<g>
		<path style="fill:#58595B;" d="M1.921,4.476C1.919,4.487,1.917,4.497,1.915,4.508C1.914,4.511,1.913,4.513,1.911,4.514
			c-0.002,0.001-0.005,0.001-0.009,0C1.897,4.512,1.892,4.511,1.888,4.51C1.884,4.51,1.88,4.508,1.877,4.506
			C1.873,4.504,1.871,4.502,1.869,4.499C1.868,4.496,1.868,4.492,1.868,4.487c0-0.004,0.001-0.01,0.002-0.017
			C1.87,4.462,1.871,4.453,1.872,4.444c0.001-0.01,0.002-0.02,0.003-0.031C1.876,4.401,1.878,4.39,1.879,4.379
			c0.001-0.011,0.003-0.022,0.005-0.032c0.002-0.01,0.004-0.02,0.005-0.028c0.002-0.008,0.004-0.015,0.006-0.021
			C1.898,4.293,1.9,4.29,1.903,4.288C1.915,4.283,1.927,4.278,1.94,4.272c0.013-0.005,0.026-0.009,0.038-0.011
			c0.013-0.002,0.024-0.002,0.036-0.001c0.011,0.002,0.021,0.007,0.029,0.015C2.05,4.283,2.056,4.291,2.061,4.299
			c0.005,0.008,0.01,0.018,0.013,0.03c0.003,0.013,0.002,0.023-0.003,0.032C2.064,4.374,2.053,4.387,2.038,4.398
			C2.022,4.409,2.004,4.419,1.983,4.429c0.004,0.005,0.009,0.01,0.014,0.016C2.002,4.45,2.008,4.455,2.013,4.461
			C2.019,4.466,2.024,4.472,2.03,4.477C2.035,4.482,2.04,4.487,2.045,4.49C2.049,4.494,2.051,4.496,2.05,4.498
			c0,0.002-0.002,0.004-0.005,0.006C2.042,4.507,2.039,4.508,2.037,4.509c-0.002,0-0.005,0.001-0.009,0.002
			C2.024,4.512,2.019,4.512,2.014,4.511c-0.005,0-0.011-0.003-0.018-0.007C1.992,4.502,1.987,4.498,1.981,4.493
			C1.976,4.489,1.97,4.484,1.964,4.478C1.957,4.472,1.951,4.467,1.945,4.461C1.939,4.455,1.934,4.449,1.929,4.443
			C1.926,4.454,1.924,4.465,1.921,4.476z M1.95,4.357C1.948,4.369,1.944,4.38,1.941,4.393c0.013-0.004,0.025-0.01,0.035-0.016
			c0.01-0.006,0.019-0.013,0.026-0.019c0.007-0.007,0.012-0.013,0.015-0.019C2.019,4.333,2.02,4.328,2.019,4.325
			C2.017,4.319,2.01,4.317,1.999,4.317c-0.006,0-0.012,0.001-0.018,0.002C1.974,4.32,1.967,4.323,1.959,4.326
			C1.956,4.336,1.953,4.346,1.95,4.357z"/>
		<path style="fill:#58595B;" d="M2.197,4.292c0.001,0.003,0.001,0.007,0,0.012C2.194,4.312,2.191,4.322,2.188,4.333
			C2.185,4.344,2.182,4.356,2.179,4.368C2.176,4.38,2.172,4.393,2.169,4.406C2.166,4.419,2.163,4.431,2.161,4.444
			C2.158,4.456,2.155,4.468,2.153,4.478C2.15,4.489,2.148,4.499,2.147,4.508C2.146,4.511,2.144,4.513,2.143,4.514
			c-0.002,0.001-0.005,0.001-0.01,0C2.128,4.513,2.123,4.511,2.119,4.51C2.114,4.509,2.11,4.507,2.106,4.505
			C2.101,4.503,2.099,4.5,2.097,4.497C2.096,4.495,2.095,4.491,2.096,4.486c0-0.007,0.001-0.015,0.002-0.026
			C2.1,4.449,2.101,4.438,2.103,4.425c0.002-0.013,0.004-0.026,0.006-0.04c0.002-0.014,0.005-0.028,0.007-0.041
			c0.002-0.013,0.005-0.026,0.007-0.038C2.126,4.294,2.128,4.284,2.13,4.275c0.002-0.006,0.004-0.009,0.007-0.01
			C2.14,4.264,2.145,4.264,2.151,4.266C2.156,4.267,2.163,4.269,2.17,4.272c0.007,0.003,0.013,0.006,0.018,0.01
			C2.193,4.286,2.196,4.289,2.197,4.292z"/>
		<path style="fill:#58595B;" d="M2.278,4.48C2.276,4.49,2.274,4.5,2.273,4.509C2.272,4.512,2.271,4.514,2.269,4.515
			c-0.002,0.001-0.005,0.001-0.01,0c-0.005-0.001-0.01-0.003-0.014-0.004C2.24,4.51,2.235,4.509,2.232,4.507
			C2.228,4.505,2.226,4.502,2.224,4.499C2.222,4.496,2.222,4.492,2.223,4.487c0.002-0.005,0.003-0.012,0.005-0.023
			C2.229,4.453,2.23,4.44,2.231,4.427c0.001-0.014,0.002-0.028,0.003-0.043c0.001-0.015,0.002-0.029,0.003-0.041
			C2.239,4.33,2.241,4.319,2.242,4.311c0.001-0.008,0.003-0.013,0.005-0.014c0.007-0.004,0.015-0.008,0.024-0.012
			C2.28,4.281,2.289,4.277,2.298,4.273C2.308,4.27,2.317,4.267,2.327,4.265c0.009-0.002,0.019-0.003,0.027-0.004
			c0.009,0,0.017,0.001,0.025,0.003c0.008,0.002,0.014,0.006,0.02,0.011C2.404,4.283,2.41,4.291,2.416,4.299
			c0.005,0.008,0.01,0.018,0.013,0.03C2.43,4.336,2.43,4.341,2.43,4.346c-0.001,0.005-0.002,0.01-0.004,0.015
			C2.423,4.366,2.42,4.37,2.417,4.374C2.414,4.378,2.41,4.382,2.406,4.386C2.399,4.393,2.392,4.399,2.383,4.405
			c-0.009,0.006-0.019,0.012-0.03,0.017c-0.011,0.005-0.022,0.01-0.034,0.014C2.308,4.441,2.296,4.445,2.285,4.448
			C2.282,4.459,2.28,4.469,2.278,4.48z M2.332,4.379c0.01-0.006,0.018-0.013,0.025-0.019C2.364,4.353,2.368,4.346,2.371,4.34
			c0.003-0.006,0.003-0.011,0.002-0.015C2.372,4.323,2.37,4.321,2.367,4.32C2.363,4.318,2.359,4.318,2.353,4.318
			c-0.005,0-0.012,0.001-0.018,0.003C2.328,4.322,2.321,4.324,2.314,4.327C2.311,4.338,2.308,4.348,2.305,4.36
			C2.303,4.371,2.3,4.382,2.297,4.394C2.31,4.39,2.322,4.385,2.332,4.379z"/>
	</g>
</g>
<g>
	<path style="fill:#DDDBCE;" d="M16.775,3.026c-0.033-0.102-0.152-0.081-0.166-0.086c-0.014-0.005-0.101-0.132-0.114-0.218
		c-0.032-0.22,0.14-0.428,0.383-0.463c0.244-0.035,0.467,0.115,0.499,0.335c0.011,0.077-0.023,0.212-0.035,0.219
		c-0.013,0.006-0.13,0.06-0.12,0.128c0.005,0.035,0.038,0.057,0.054,0.082c0.016,0.026,0.019,0.074,0.012,0.085
		c-0.007,0.011-0.081,0.02-0.093,0.013c-0.012-0.006,0.003-0.056-0.009-0.063c-0.012-0.007-0.055,0.001-0.064,0.009
		c-0.009,0.008,0.016,0.051,0.009,0.063c-0.007,0.013-0.059,0.015-0.07,0.01c-0.011-0.005,0.004-0.057-0.009-0.063
		c-0.013-0.006-0.065,0.003-0.072,0.01c-0.007,0.008,0.014,0.052,0.009,0.063c-0.005,0.011-0.058,0.018-0.07,0.01
		c-0.011-0.008-0.001-0.055-0.009-0.063c-0.008-0.009-0.055,0.002-0.065,0.009c-0.01,0.007,0.017,0.053,0.009,0.063
		c-0.008,0.011-0.081,0.021-0.093,0.013c-0.012-0.007-0.015-0.044-0.01-0.071C16.757,3.088,16.78,3.058,16.775,3.026z"/>
	<g style="opacity:0.4;">
		<path style="fill:#A7A9AC;" d="M16.847,2.265c0.01-0.002,0.021-0.004,0.031-0.006c0.244-0.035,0.467,0.115,0.499,0.335
			c0.011,0.077-0.021,0.211-0.035,0.219c-0.019,0.011-0.039,0.016-0.055,0.031c0.028-0.065,0.054-0.157,0.043-0.23
			C17.298,2.396,17.086,2.245,16.847,2.265z"/>
	</g>
	<path style="fill:#414042;" d="M17.018,2.762c0.008,0.055,0.064,0.092,0.125,0.084c0.061-0.009,0.104-0.061,0.096-0.116
		c-0.008-0.055-0.064-0.092-0.124-0.084C17.053,2.655,17.01,2.707,17.018,2.762z"/>
	<path style="fill:#414042;" d="M16.699,2.808c0.008,0.055,0.064,0.092,0.125,0.084c0.061-0.009,0.104-0.061,0.096-0.116
		c-0.008-0.055-0.064-0.092-0.125-0.084C16.734,2.701,16.691,2.753,16.699,2.808z"/>
	<path style="opacity:0.3;fill:#414042;" d="M17.217,2.755c-0.008-0.055-0.064-0.092-0.124-0.084
		c-0.024,0.004-0.045,0.014-0.062,0.028c0.016-0.028,0.046-0.049,0.083-0.054c0.061-0.009,0.116,0.029,0.124,0.084
		c0.005,0.033-0.009,0.065-0.034,0.087C17.216,2.798,17.221,2.777,17.217,2.755z"/>
	<path style="opacity:0.3;fill:#414042;" d="M16.795,2.692c0.04-0.006,0.077,0.008,0.101,0.034c-0.022-0.014-0.05-0.02-0.079-0.016
		c-0.061,0.009-0.104,0.061-0.096,0.116c0.003,0.019,0.011,0.036,0.024,0.05c-0.024-0.015-0.041-0.039-0.045-0.068
		C16.691,2.753,16.734,2.701,16.795,2.692z"/>
	<path style="fill:#414042;" d="M16.99,2.905c0.039-0.006,0.098,0.079,0.077,0.091c-0.021,0.013-0.05-0.011-0.066-0.007
		c-0.016,0.004-0.021,0.021-0.048,0.025C16.916,3.02,16.945,2.912,16.99,2.905z"/>
</g>
<g>
	<path style="fill:#F1F1F2;" d="M16.342,2.935c0.016-0.104,0.123-0.099,0.135-0.106c0.012-0.007,0.072-0.142,0.072-0.227
		c0-0.218-0.176-0.394-0.394-0.394c-0.218,0-0.394,0.176-0.394,0.394c0,0.076,0.047,0.202,0.059,0.207
		c0.012,0.004,0.121,0.039,0.121,0.107c0,0.034-0.026,0.06-0.036,0.087c-0.011,0.027-0.007,0.075,0,0.084
		c0.007,0.009,0.073,0.008,0.083,0c0.009-0.008-0.009-0.054,0-0.062c0.009-0.009,0.049-0.006,0.057,0
		c0.009,0.006-0.008,0.051,0,0.062c0.008,0.011,0.054,0.007,0.062,0c0.009-0.007-0.011-0.055,0-0.062
		c0.011-0.008,0.057-0.006,0.064,0c0.007,0.006-0.006,0.052,0,0.062c0.006,0.01,0.053,0.01,0.062,0c0.009-0.01-0.006-0.053,0-0.062
		c0.006-0.01,0.048-0.005,0.058,0c0.01,0.005-0.008,0.053,0,0.062c0.008,0.009,0.074,0.009,0.083,0c0.009-0.009,0.008-0.045,0-0.07
		C16.366,2.993,16.342,2.967,16.342,2.935z"/>
	<g style="opacity:0.4;">
		<path style="fill:#A7A9AC;" d="M16.183,2.209c-0.009-0.001-0.019-0.001-0.028-0.001c-0.218,0-0.394,0.176-0.394,0.394
			c0,0.076,0.045,0.201,0.059,0.207c0.018,0.008,0.037,0.01,0.052,0.022c-0.033-0.059-0.067-0.144-0.067-0.217
			C15.805,2.4,15.971,2.224,16.183,2.209z"/>
	</g>
	<path style="fill:#414042;" d="M16.096,2.714c0,0.054-0.044,0.098-0.098,0.098c-0.054,0-0.098-0.044-0.098-0.098
		c0-0.054,0.044-0.098,0.098-0.098C16.052,2.616,16.096,2.66,16.096,2.714z"/>
	<path style="fill:#414042;" d="M16.381,2.714c0,0.054-0.044,0.098-0.098,0.098c-0.054,0-0.098-0.044-0.098-0.098
		c0-0.054,0.044-0.098,0.098-0.098C16.337,2.616,16.381,2.66,16.381,2.714z"/>
	<path style="opacity:0.3;fill:#414042;" d="M15.921,2.736c0-0.054,0.044-0.098,0.098-0.098c0.022,0,0.042,0.007,0.058,0.019
		c-0.018-0.025-0.047-0.041-0.08-0.041c-0.054,0-0.098,0.044-0.098,0.098c0,0.033,0.016,0.062,0.041,0.08
		C15.928,2.777,15.921,2.757,15.921,2.736z"/>
	<path style="opacity:0.3;fill:#414042;" d="M16.283,2.616c-0.036,0-0.067,0.019-0.084,0.047c0.018-0.016,0.041-0.027,0.067-0.027
		c0.054,0,0.098,0.044,0.098,0.098c0,0.019-0.005,0.036-0.015,0.051c0.019-0.018,0.031-0.043,0.031-0.072
		C16.381,2.66,16.337,2.616,16.283,2.616z"/>
	<path style="fill:#414042;" d="M16.139,2.849c-0.035,0-0.076,0.09-0.056,0.099c0.02,0.009,0.042-0.017,0.057-0.016
		c0.015,0.001,0.021,0.018,0.045,0.018C16.219,2.95,16.179,2.849,16.139,2.849z"/>
</g>
<g>
	<g>
		<path style="fill:#BBBDBF;" d="M8.294,16.826c0,0-0.042,0.101-0.093,0.09c-0.051-0.011-0.221-0.193-0.586-0.261
			c-0.365-0.068-0.449,0.055-0.552,0.084c-0.103,0.029-0.123-0.067-0.141-0.105l0.001-0.027l0.019-0.035l0.05-0.034l0.243-0.036
			c0,0,0.357-0.192,0.392-0.199c0.036-0.008,0.439-0.011,0.439-0.011l0.171,0.222L8.294,16.826z"/>
		<path style="fill:#F1F1F2;" d="M9.05,16.418c0,0-0.104,0.472-0.435,0.293c0,0-0.077,0.232-0.179,0.239
			c-0.102,0.007-0.387-0.54-0.574-0.523c-0.187,0.018-0.237,0.367-0.47,0.354c-0.234-0.014-0.281-0.225-0.38-0.216
			c-0.099,0.009-0.09,0.069-0.09,0.069S6.91,16.62,6.921,16.594c0.011-0.026,0.101-0.144,0.137-0.226
			c0.036-0.082,0.213-0.485,0.222-0.617c0.009-0.133,0.037-0.418,0.1-0.575c0.063-0.157,0.251-0.533,0.611-0.413
			c0.36,0.119,0.393,0.498,0.373,0.71c-0.019,0.212-0.038,0.411,0.129,0.62C8.661,16.301,9.05,16.418,9.05,16.418z"/>
	</g>
	<g>
		<path style="fill:#3C2E49;" d="M7.919,15.342c0.028,0.05,0.077,0.077,0.11,0.058c0.033-0.018,0.038-0.074,0.01-0.124
			c-0.028-0.05-0.077-0.077-0.11-0.058C7.896,15.236,7.891,15.291,7.919,15.342z"/>
		<path style="fill:#3C2E49;" d="M7.754,15.331c-0.034,0.047-0.086,0.066-0.117,0.044c-0.031-0.022-0.028-0.078,0.006-0.124
			c0.034-0.047,0.086-0.066,0.117-0.044C7.79,15.229,7.787,15.285,7.754,15.331z"/>
	</g>
</g>
<g>
	<g>
		<g id="coffin_3_">
			<g id="Base_3_">
				<path style="fill:#594A42;" d="M10.928,6.857l-0.309-0.698c-0.012-0.028-0.041-0.046-0.073-0.047L9.665,6.095
					C9.633,6.095,9.603,6.112,9.59,6.139L9.252,6.824C9.245,6.84,9.243,6.857,9.246,6.873l0.422,1.783
					c0.008,0.035,0.04,0.06,0.077,0.061l0.612,0.012c0.037,0.001,0.07-0.023,0.08-0.058l0.494-1.765
					C10.936,6.89,10.935,6.873,10.928,6.857z"/>
			</g>
			<g id="Lid_3_">
				<g>
					<polygon style="fill:#9B8579;" points="10.492,6.226 9.71,6.21 9.386,6.87 9.797,8.601 10.311,8.611 10.798,6.898 					"/>
					<path style="fill:#C2B59B;" d="M10.32,8.624L9.787,8.613l-0.002-0.01L9.373,6.868l0.33-0.671l0.798,0.016l0.31,0.684
						L10.81,6.902L10.32,8.624z M9.807,8.588l0.494,0.01l0.483-1.699l-0.3-0.66L9.718,6.223L9.4,6.871L9.807,8.588z"/>
				</g>
			</g>
		</g>
		<polygon id="cross_3_" style="fill:#594A42;" points="10.151,7.589 10.164,6.947 10.341,6.951 10.344,6.8 10.167,6.796 
			10.171,6.593 10.02,6.59 10.016,6.793 9.838,6.79 9.835,6.94 10.013,6.944 10,7.586 		"/>
	</g>
</g>
<g>
	<path style="fill:#0C0607;" d="M15.936,13.172l0.106,0.087l0.095,0.053l0.077,0.045l0.02,0.012
		c0.013,0.009,0.028,0.019,0.038,0.007c0.009-0.013,0.005-0.019-0.008-0.028l-0.028-0.022l-0.067-0.061l-0.094-0.052l-0.079-0.065
		c-0.019,0.01-0.039,0.016-0.06,0.021L15.936,13.172z"/>
	<path style="fill:#0C0607;" d="M15.955,13.393l0.153,0.111l0.125,0.329l0.111,0.084c0.02,0.015,0.043,0.017,0.058-0.004
		c0.014-0.02,0.006-0.044-0.014-0.058l-0.09-0.067l-0.113-0.34l-0.16-0.116l-0.094-0.163c-0.035,0.006-0.071,0.004-0.107-0.006
		L15.955,13.393z"/>
	<path style="fill:#0C0607;" d="M15.673,13.895c0.022,0.002,0.03-0.019,0.034-0.044l0.006-0.06l0.071-0.12l0.064-0.165l-0.008-0.195
		l-0.027-0.152c-0.026-0.008-0.052-0.021-0.075-0.038c-0.009-0.006-0.017-0.013-0.025-0.021c0,0.003,0,0.006,0.001,0.009
		l0.037,0.212l0.011,0.168l-0.051,0.162l-0.056,0.116l-0.012,0.084C15.64,13.877,15.649,13.892,15.673,13.895z"/>
	<path style="fill:#0C0607;" d="M15.634,12.993l-0.072,0.153l-0.096,0.117l-0.11,0.09l-0.097,0.055
		c-0.005,0.003-0.034,0.02-0.043,0.027c-0.021,0.013-0.026,0.03-0.016,0.046c0.013,0.021,0.028,0.037,0.076,0.007l0.118-0.071
		l0.138-0.085l0.111-0.13l0.052-0.12c-0.026-0.029-0.043-0.063-0.053-0.099C15.638,12.985,15.635,12.989,15.634,12.993z"/>
	<path style="fill:#0C0607;" d="M15.634,12.891c-0.073,0.046-0.166,0.056-0.253,0.028l-0.019,0.003l-0.166-0.026l-0.199-0.044
		l-0.191-0.031l-0.15-0.037c-0.018-0.004-0.033-0.001-0.043,0.013c-0.003,0.005-0.006,0.01-0.007,0.016
		c-0.006,0.024,0.016,0.044,0.04,0.05l0.143,0.025l0.191,0.04l0.198,0.057l0.183,0.029l0.277-0.039
		C15.632,12.946,15.631,12.918,15.634,12.891z"/>
	<path style="fill:#231F20;" d="M16.111,12.983l0.088,0.056l0.079,0.073l0.078,0.045l0.03,0.019c0.013,0.009,0.02,0.012,0.03-0.001
		c0.009-0.013-0.005-0.025-0.018-0.034l-0.018-0.015l-0.066-0.059l-0.08-0.074l-0.116-0.073l-0.008,0.003
		C16.113,12.943,16.113,12.963,16.111,12.983L16.111,12.983z"/>
	<path style="fill:#231F20;" d="M16.297,12.952l0.16,0.116l0.358,0.002l0.091,0.065c0.02,0.014,0.045,0.015,0.06-0.005
		s0.005-0.042-0.015-0.056l-0.114-0.079l-0.351-0.016l-0.153-0.111l-0.267-0.056c0.022,0.031,0.036,0.065,0.042,0.1L16.297,12.952z"
		/>
	<path style="fill:#231F20;" d="M16.064,12.808l0.158-0.023l0.187-0.053l0.137-0.112l0.092-0.104l0.055-0.025
		c0.022-0.011,0.04-0.026,0.031-0.046c-0.01-0.023-0.027-0.026-0.049-0.015l-0.076,0.037l-0.093,0.09l-0.138,0.099l-0.163,0.042
		l-0.213,0.031c-0.005,0.001-0.01,0.002-0.014,0.005c0.01,0.005,0.02,0.012,0.03,0.019C16.029,12.768,16.048,12.787,16.064,12.808z"
		/>
	<path style="fill:#231F20;" d="M16.055,12.631l0.089-0.146l0.038-0.158l0.031-0.134c0.013-0.055-0.006-0.064-0.03-0.07
		c-0.018-0.004-0.033,0.006-0.039,0.03c-0.004,0.011-0.011,0.044-0.012,0.05l-0.022,0.11l-0.051,0.132l-0.081,0.127l-0.123,0.116
		c-0.005,0.004-0.008,0.009-0.011,0.014c0.036-0.002,0.073,0.004,0.109,0.019L16.055,12.631z"/>
	<path style="fill:#231F20;" d="M15.755,12.724c0.026-0.012,0.054-0.02,0.083-0.022l-0.05-0.279l-0.084-0.165l-0.116-0.17
		l-0.097-0.169l-0.068-0.128c-0.013-0.021-0.039-0.036-0.06-0.023c-0.005,0.003-0.009,0.007-0.013,0.012
		c-0.01,0.014-0.009,0.029,0.001,0.045l0.082,0.131l0.089,0.172l0.104,0.175l0.076,0.149l0.005,0.029
		C15.757,12.554,15.775,12.643,15.755,12.724z"/>
	<path style="fill:#0C0607;" d="M16.048,13.169c0.031,0.022,0.066,0.028,0.077,0.011c0.012-0.016-0.004-0.047-0.035-0.07
		c-0.01-0.007-0.02-0.012-0.029-0.016c-0.013,0.016-0.028,0.029-0.045,0.04C16.023,13.146,16.034,13.158,16.048,13.169z"/>
	<path style="fill:#231F20;" d="M16.107,13.088c0.031,0.022,0.066,0.027,0.077,0.011c0.012-0.016-0.004-0.048-0.035-0.07
		c-0.015-0.011-0.03-0.017-0.044-0.02c-0.005,0.019-0.013,0.038-0.023,0.055C16.089,13.072,16.097,13.08,16.107,13.088z"/>
	<path style="fill:#423630;" d="M15.814,13.081c0.005,0.004,0.01,0.007,0.015,0.01c0.021,0.012,0.044,0.019,0.067,0.022
		c0.013,0.001,0.027,0.001,0.04-0.001c0.019-0.003,0.037-0.009,0.053-0.018c0.017-0.01,0.032-0.023,0.044-0.04c0,0,0,0,0,0
		l-0.263-0.191c0,0,0,0,0,0C15.723,12.931,15.742,13.028,15.814,13.081z"/>
	<path style="fill:#4B3E37;" d="M16.059,12.995c0.003-0.018,0.003-0.037-0.001-0.055c-0.003-0.014-0.007-0.028-0.014-0.041
		c-0.009-0.018-0.022-0.035-0.038-0.05c-0.005-0.005-0.01-0.009-0.016-0.013c-0.073-0.053-0.171-0.041-0.22,0.027l0.263,0.191
		C16.048,13.036,16.056,13.016,16.059,12.995z"/>
	<path style="fill:#52443D;" d="M15.753,12.732c0.001-0.003,0.001-0.005,0.002-0.008c0.02-0.081,0.003-0.17-0.048-0.243
		c-0.021-0.03-0.047-0.058-0.079-0.081c-0.14-0.101-0.33-0.078-0.424,0.052l0.507,0.367C15.73,12.792,15.744,12.763,15.753,12.732z"
		/>
	<path style="fill:#483B34;" d="M15.381,12.919c0.087,0.028,0.18,0.018,0.253-0.028c0.004-0.003,0.008-0.005,0.013-0.008
		c0.024-0.017,0.046-0.038,0.064-0.063c0,0,0,0,0,0l-0.507-0.367c0,0,0,0,0,0c-0.094,0.13-0.057,0.318,0.083,0.419
		C15.316,12.893,15.348,12.909,15.381,12.919z"/>
	<path style="fill:#594A42;" d="M15.711,12.819l0.061,0.044c0.049-0.067,0.147-0.079,0.22-0.027
		c0.006,0.004,0.011,0.008,0.016,0.013c0.016,0.015,0.029,0.032,0.038,0.05c0.006,0.013,0.011,0.027,0.014,0.041
		c0.004,0.018,0.004,0.037,0.001,0.055c-0.004,0.021-0.012,0.041-0.025,0.059l0.037,0.027c0.004-0.005,0.007-0.011,0.011-0.016
		c0.01-0.017,0.018-0.036,0.023-0.055c0.002-0.008,0.004-0.017,0.005-0.026c0.003-0.02,0.003-0.04,0-0.061
		c0-0.003-0.001-0.006-0.001-0.01c-0.006-0.035-0.02-0.07-0.042-0.1c-0.001-0.002-0.002-0.003-0.003-0.005
		c-0.016-0.021-0.035-0.04-0.057-0.057c-0.01-0.007-0.02-0.013-0.03-0.019c-0.008-0.004-0.016-0.008-0.024-0.012
		c-0.035-0.015-0.073-0.021-0.109-0.019c-0.002,0-0.004,0-0.006,0c-0.029,0.002-0.057,0.009-0.083,0.022
		c-0.001,0.003-0.001,0.005-0.002,0.008C15.744,12.763,15.73,12.792,15.711,12.819z"/>
	<path style="fill:#52443D;" d="M16.035,13.054c-0.012,0.017-0.027,0.03-0.044,0.04c-0.016,0.009-0.035,0.016-0.053,0.018
		c-0.013,0.002-0.027,0.002-0.04,0.001c-0.023-0.002-0.046-0.01-0.067-0.022c-0.005-0.003-0.01-0.006-0.015-0.01
		c-0.073-0.053-0.092-0.15-0.043-0.218c0,0,0,0,0,0l-0.061-0.044c0,0,0,0,0,0c-0.018,0.025-0.04,0.046-0.064,0.063
		c-0.004,0.003-0.008,0.006-0.013,0.008c-0.004,0.027-0.002,0.055,0.004,0.082c0.001,0.003,0.001,0.006,0.002,0.008
		c0.01,0.036,0.027,0.07,0.053,0.099c0.006,0.007,0.013,0.014,0.02,0.021c0.008,0.007,0.016,0.014,0.025,0.021
		c0.024,0.017,0.049,0.03,0.075,0.038c0.003,0.001,0.005,0.002,0.008,0.002c0.036,0.01,0.072,0.012,0.107,0.006
		c0.003,0,0.005-0.001,0.008-0.001c0.021-0.004,0.041-0.011,0.06-0.021c0.007-0.004,0.014-0.008,0.021-0.012
		c0.017-0.011,0.032-0.024,0.045-0.04c0.004-0.004,0.007-0.008,0.01-0.013c0,0,0,0,0,0L16.035,13.054
		C16.035,13.054,16.035,13.054,16.035,13.054z"/>
</g>
<polygon style="fill:#E06910;stroke:#E06910;stroke-width:0.25;stroke-linecap:round;stroke-linejoin:round;stroke-miterlimit:10;" points="
	15.083,4.951 14.688,5.636 15.479,5.636 "/>
<polygon style="fill:#196635;stroke:#196635;stroke-width:0.25;stroke-linecap:round;stroke-linejoin:round;stroke-miterlimit:10;" points="
	15.204,5.588 14.808,6.274 15.599,6.274 "/>
</svg>
